<?xml version="1.0" encoding="UTF-8" standalone="no"?>
<svg
   xmlns:dc="http://purl.org/dc/elements/1.1/"
   xmlns:cc="http://creativecommons.org/ns#"
   xmlns:rdf="http://www.w3.org/1999/02/22-rdf-syntax-ns#"
   xmlns:svg="http://www.w3.org/2000/svg"
   xmlns="http://www.w3.org/2000/svg"
   xmlns:sodipodi="http://sodipodi.sourceforge.net/DTD/sodipodi-0.dtd"
   xmlns:inkscape="http://www.inkscape.org/namespaces/inkscape"
   width="100"
   height="100"
   viewBox="0 0 26.458333 26.458333"
   version="1.1"
   id="svg8"
   inkscape:version="1.0.2-2 (e86c870879, 2021-01-15)"
   sodipodi:docname="desenhando.svg">
  <defs
     id="defs2" />
  <sodipodi:namedview
     id="base"
     pagecolor="#ffffff"
     bordercolor="#666666"
     borderopacity="1.0"
     inkscape:pageopacity="0.0"
     inkscape:pageshadow="2"
     inkscape:zoom="1.979899"
     inkscape:cx="-126.02397"
     inkscape:cy="108.62754"
     inkscape:document-units="mm"
     inkscape:current-layer="layer1"
     inkscape:document-rotation="0"
     showgrid="false"
     units="px"
     inkscape:window-width="1366"
     inkscape:window-height="728"
     inkscape:window-x="0"
     inkscape:window-y="0"
     inkscape:window-maximized="0" />
  <metadata
     id="metadata5">
    <rdf:RDF>
      <cc:Work
         rdf:about="">
        <dc:format>image/svg+xml</dc:format>
        <dc:type
           rdf:resource="http://purl.org/dc/dcmitype/StillImage" />
        <dc:title></dc:title>
      </cc:Work>
    </rdf:RDF>
  </metadata>
  <g
     inkscape:label="Layer 1"
     inkscape:groupmode="layer"
     id="layer1">
    <path
       style="fill:#ffffff;stroke:none;stroke-width:0.126227"
       d="M 6.9856663,3.343274 9.1648654,1.1205816 V 1.0035979 C 6.8934453,1.4618352 3.4961832,3.9114761 4.3780095,6.1508856 4.7007353,6.9704625 6.2942882,7.4794591 6.3533309,8.2612033 6.4248497,9.2083747 5.7581099,10.203907 5.780038,11.178967 c 0.012993,0.577432 0.6869654,0.558597 0.8430641,1.01811 0.1601439,0.471328 -0.3633678,1.228681 -0.2790192,1.791724 0.2441929,1.630169 1.224274,3.246534 2.1098324,4.679352 0.6228014,1.007699 1.4000128,1.969657 1.8730617,3.04158 0.483988,1.096723 0.0967,2.208069 1.834287,2.42133 2.854206,0.350484 4.878137,-2.923191 5.906038,-4.761007 0.826733,-1.47774 1.934175,-3.007537 2.059752,-4.679352 0.05952,-0.793033 -0.477245,-1.701646 -0.308902,-2.45666 0.207569,-0.930255 1.310788,-1.502306 1.444809,-2.5736439 C 21.415369,8.4429027 20.780949,7.418885 20.745673,6.2678694 20.70495,4.9425949 21.667611,3.5884838 22.24006,2.4074036 L 20.74186,3.343274 22.24006,0.88661402 18.835061,1.9015539 11.207864,2.0899446 6.9856663,3.343274 m 12.1217947,0.3509515 -0.408599,1.0528544 1.089599,-0.4679353 -2.043,2.2226925 C 18.753069,4.3991933 17.52291,3.4747405 15.021462,3.3144844 12.289196,3.1394415 9.7684217,4.1673197 7.3942661,5.1861318 6.4342609,5.5980903 5.8530413,5.6369055 4.8064674,5.5659665 L 5.0788672,4.2791446 c 1.0759522,0.993216 2.4588311,0.3165699 3.6773983,-0.142615 1.8218235,-0.6865078 3.9895275,-1.1949545 5.9927975,-1.084089 1.478859,0.081841 2.878586,0.5414713 4.358398,0.6417849 m -3.677399,3.743482 v 0.1169837 c 1.27238,0.4716553 2.114232,1.2973508 2.451599,2.4566608 1.132912,-0.490748 0.56918,-2.0889336 1.54301,-2.892016 0.312442,-0.2576568 1.391554,-0.523561 1.203871,0.1790906 -0.09071,0.339873 -0.645452,0.5261229 -0.905594,0.7626524 -0.540305,0.4909345 -0.735343,1.0592065 -0.751688,1.7163048 l 0.953401,-0.5849191 c 0.127755,0.6845893 -0.283024,1.1863323 -0.681,1.7547573 0.927385,-0.435882 1.047105,-1.1589589 0.817199,-1.9887252 l -0.817199,0.3509519 c 0.127346,-0.8356623 0.699114,-1.3176005 1.634399,-1.5207898 0.188773,1.2827274 0.35916,3.5201601 -1.498199,3.9774501 1.16519,3.561338 -0.820742,6.7075 -3.136004,9.592672 -0.918668,1.144686 -2.180289,2.834283 -4.082484,2.542643 -1.505405,-0.230691 -1.255804,-1.855129 -1.830405,-2.776611 -1.4634135,-2.346929 -5.0111904,-6.284721 -3.2091017,-9.007753 0.9478426,0.47086 1.2826901,1.120237 2.4515988,1.052854 l -0.1362,1.871741 -1.7705991,-0.818886 c 0.6126545,1.128426 1.5646241,1.337592 1.4981994,2.690627 1.8540756,0.263213 -0.031816,2.586044 1.6349306,3.312046 1.476897,0.643177 3.323701,-0.09054 4.294125,-1.091108 1.681525,-1.733466 1.970541,-4.616298 1.970541,-6.783307 h 0.1362 l 0.1362,2.924596 h 0.1362 c 0.02166,-0.899021 0.450141,-2.068976 -0.07804,-2.911844 -0.697342,-1.112984 -3.004842,0.179453 -3.599355,0.806135 l 2.723998,-0.93587 c -1.052825,1.218152 -3.092854,3.032922 -4.903197,3.275547 l 0.1362,-0.467936 c -0.693448,0.683537 -1.262424,1.369764 -2.3153988,1.637773 0.1932949,-1.313611 -0.2115867,-4.147426 1.1427728,-5.047383 1.147498,-0.7625 2.862922,0.492502 4.16848,0.136053 0.997256,-0.272222 1.23942,-1.442294 1.771143,-2.1076979 -2.635577,0.6471539 -5.069756,1.9593619 -7.8995954,1.9882569 -0.6036109,0.0062 -2.0600921,0.221918 -2.445824,-0.284271 C 5.8617444,10.954358 6.2046687,9.9976641 6.2938387,9.5434161 6.3820691,9.0939643 6.503573,8.6752791 6.7132665,8.256594 L 9.3010652,9.075481 C 9.7052114,6.7579145 12.183479,5.0092522 14.885263,4.9815037 c 0.671465,-0.0069 1.72252,-0.1327299 2.250432,0.3157393 0.860374,0.7309266 -1.096546,1.8705009 -1.705633,2.1404645 m 0.408601,2.6906275 c -0.693395,1.044549 -1.768012,1.768679 -3.1326,1.052855 l 3.1326,-1.052855 m 0.408599,1.169838 v 0.116984 l 0.9534,-0.116984 h -0.9534 m 1.2258,-0.116983 v 0.116983 l 0.408599,0.116984 -0.408599,-0.233967 m -1.4982,0.233967 0.1362,0.116984 -0.1362,-0.116984 m -5.856597,0.350952 c -0.5205018,1.126086 -1.6472158,0.79081 -2.587799,0.233967 l 2.587799,-0.233967 m 1.361999,1.637773 1.361999,-1.169838 v 1.637773 h 0.136201 c 0.235871,-0.639083 0.348426,-1.132755 0,-1.754757 l -1.4982,1.286822 m 4.903198,-0.467935 c 0,1.096489 0.45627,2.384831 -0.681,3.158563 0,-0.92698 -0.43475,-2.675186 0.681,-3.158563 m -4.903198,1.754757 h 0.1362 l 0.2724,-0.584919 0.4086,0.233967 0.272399,-0.93587 c -0.613375,0.269296 -0.898824,0.729979 -1.089599,1.286822 m 4.085998,-0.93587 c -0.304815,1.099647 0.346085,2.491755 -0.953399,3.158562 -0.0113,-1.174518 -0.589065,-2.535155 0.953399,-3.158562 M 7.3942661,15.392606 H 7.530466 C 7.4250337,14.233765 7.7315788,14.109997 9.0286654,14.339752 7.756735,13.385399 7.1565291,14.292723 7.3942661,15.392606 m 5.3117969,-1.403805 0.1362,0.116984 -0.1362,-0.116984 m 1.9068,0.116984 c -0.835437,1.017993 -2.029842,1.646196 -3.404999,1.988725 l 1.498199,-0.763788 1.9068,-1.224937 m -2.043,0.116984 0.1362,0.116983 -0.1362,-0.116983 m 1.7706,0.584919 c 0,0.997169 0.430936,2.515385 -1.089599,2.690627 -0.01227,-1.27372 -0.307213,-1.896424 1.089599,-2.690627 M 9.1648654,15.15864 9.3010652,15.392606 9.1648654,15.15864 m 3.8135986,0.584918 0.1362,1.988725 c -1.812603,0.117451 -1.620426,-1.531319 -0.1362,-1.988725 m 3.132598,0.350952 -0.4086,1.169838 h -0.1362 l 0.5448,-1.169838 m -4.630798,0.116983 0.2724,1.637774 c -0.837602,-0.06586 -1.069673,-0.347325 -1.089599,-1.052855 h -0.1362 l 0.1362,0.935871 c -0.451081,-0.208582 -0.9774528,-0.948739 -0.1362,-0.935871 l 0.953399,-0.584919 m 3.949798,0.584919 -0.680999,1.754758 c -0.419224,-0.749165 -0.206207,-1.395149 0.680999,-1.754758 m 0.681,0.233968 c -0.358069,1.294894 -1.367856,2.547439 -2.860198,3.026488 -1.291612,0.41459 -2.945175,0.08399 -2.996399,-1.271731 h 0.1362 c 1.212765,1.398775 3.544467,0.77958 4.722188,-0.36148 0.432162,-0.418919 0.595466,-0.965116 0.998209,-1.393277 m -1.770599,0.467935 c 0.0026,0.850122 0.111139,1.522778 -1.089599,1.637773 0,-0.885801 -0.0065,-1.364967 1.089599,-1.637773 m -3.949798,0.350952 h 0.1362 l 0.2724,1.052854 c -0.364172,-0.297724 -0.559537,-0.624459 -0.4086,-1.052854 m 1.498199,0.233967 v 1.286822 c -0.911695,-0.206828 -0.93395,-0.686695 -1.089599,-1.403806 l 1.089599,0.116984 m 1.0896,-0.116984 0.1362,1.403806 c -1.098004,-0.01123 -1.245835,-0.554036 -0.9534,-1.403806 h 0.8172 m -1.6344,3.626498 c 0.775006,-0.377974 1.25793,-0.479984 1.9068,0.116985 0.16777,-1.063851 -1.452355,-0.597086 -1.9068,-0.116985 m -0.1362,0.116985 -0.136199,0.233967 z"
       id="path38" />
  </g>
</svg>
