<?xml version="1.0" encoding="UTF-8" standalone="no"?>
<!-- Created with Inkscape (http://www.inkscape.org/) -->

<svg
   width="100"
   height="100"
   viewBox="0 0 26.458333 26.458333"
   version="1.1"
   id="svg1"
   xml:space="preserve"
   xmlns:inkscape="http://www.inkscape.org/namespaces/inkscape"
   xmlns:sodipodi="http://sodipodi.sourceforge.net/DTD/sodipodi-0.dtd"
   xmlns="http://www.w3.org/2000/svg"
   xmlns:svg="http://www.w3.org/2000/svg"><sodipodi:namedview
     id="namedview1"
     pagecolor="#ffffff"
     bordercolor="#000000"
     borderopacity="0.25"
     inkscape:showpageshadow="2"
     inkscape:pageopacity="0.0"
     inkscape:pagecheckerboard="0"
     inkscape:deskcolor="#d1d1d1"
     inkscape:document-units="mm" /><defs
     id="defs1" /><g
     inkscape:label="Camada 1"
     inkscape:groupmode="layer"
     id="layer1"><path
       style="fill:#ffffff;stroke:none;stroke-width:1"
       d="M 12.265186,0.22904021 C 9.713519,0.56423284 7.4026817,1.2986299 5.3285705,2.882749 3.9938402,3.9021691 2.841873,5.1899332 2.0045374,6.648524 -1.3525318,12.496327 0.25294558,20.06021 5.7582725,23.994525 c 1.3663463,0.976437 2.9187716,1.628273 4.5425625,2.028994 1.482988,0.365979 3.090327,0.439378 4.603949,0.25104 1.964426,-0.244418 3.858979,-0.916451 5.524739,-1.989353 1.236871,-0.796671 2.323846,-1.806289 3.22741,-2.965435 C 28.210233,15.478545 26.841297,6.760849 20.79784,2.5185061 19.541958,1.6369118 18.111385,0.98180907 16.623593,0.60976884 15.240885,0.26400156 13.690519,0.04180218 12.265186,0.22904021 M 21.90279,21.258386 c -0.996868,-2.569452 -3.070402,-4.664745 -5.708899,-5.524745 0.866983,-1.065043 1.80767,-1.710034 2.171245,-3.130678 C 19.524252,8.0737573 14.302704,4.3899056 10.423606,6.9772414 9.8470284,7.361817 9.3567051,7.8521373 8.9721323,8.4287185 8.5459512,9.0676765 8.27257,9.7583796 8.1473997,10.515841 c -0.132062,0.799106 -0.054317,1.623549 0.1908378,2.394052 0.4014473,1.261773 1.2992082,1.85799 2.0853685,2.823748 C 7.786643,16.593136 5.7109503,18.690553 4.7147102,21.258386 3.8081521,20.799405 3.081044,19.26391 2.6700734,18.373242 1.1749343,15.132942 1.0986749,11.286875 2.7117077,8.0603914 5.8506433,1.7817179 13.796678,-0.32936184 19.692893,3.3455196 c 1.100413,0.6858461 2.099723,1.6027435 2.892009,2.6277478 0.935038,1.2097025 1.640545,2.5821374 2.062401,4.0514806 0.843441,2.93778 0.48973,6.145688 -0.946273,8.839585 -0.400695,0.751686 -1.015366,1.997688 -1.79824,2.394053 M 12.817661,7.4029124 c 4.063171,-0.5280007 6.10405,5.1110586 2.578213,7.2587046 -0.48341,0.294454 -1.034251,0.490172 -1.596038,0.563183 -4.0631773,0.528 -6.1040302,-5.111059 -2.578211,-7.2587034 0.483409,-0.2944542 1.03425,-0.4901733 1.596036,-0.5631842 m 0.06137,9.1462756 c 2.639785,-0.311473 5.416653,1.250531 6.892329,3.358716 0.339884,0.485553 1.242037,1.754604 1.045079,2.388498 -0.130446,0.419819 -0.953804,0.802672 -1.307721,1.023013 -1.426208,0.887892 -3.058887,1.458429 -4.726721,1.66594 C 12.345841,25.288466 9.9662064,24.790467 7.7840048,23.698674 7.2725838,23.442792 5.9864739,22.871111 5.8010382,22.291486 5.6162659,21.713942 6.4244824,20.548495 6.7217341,20.092053 8.1441028,17.907945 10.367833,16.845485 12.879042,16.549188 Z"
       id="path1" /></g></svg>
